<?xml version="1.0" encoding="UTF-8"?>
<svg width="82px" height="82px" viewBox="0 0 82 82" version="1.1" xmlns="http://www.w3.org/2000/svg" xmlns:xlink="http://www.w3.org/1999/xlink">
    <title>Untitled</title>
    <g id="Page-1" stroke="none" stroke-width="1" fill="none" fill-rule="evenodd">
        <g id="video" transform="translate(-0.000000, 0.000000)" fill-rule="nonzero">
            <path d="M82.0004802,75.9424124 C82.0004802,79.2874108 79.2876509,82 75.9428926,82 L6.05734748,82 C2.71258916,82 0,79.2871707 0,75.9424124 L0,6.05758758 C0,2.71114859 2.71258916,0 6.05734748,0 L75.9426525,0 C79.2876509,0 82.0004802,2.71114859 82.0004802,6.05758758 L82.0004802,75.9424124 L82.0004802,75.9424124 Z" id="Shape" fill="#1F4B7F"></path>
            <g id="iconfinder_video_camera_camera_film_camera_film_recorder_movie_camera_4632196" transform="translate(9.000000, 12.000000)" fill="#FFFFFF">
                <path d="M63.4723461,22.9813431 C62.4667951,22.4048011 61.2279051,22.4048011 60.222354,22.9813431 L51.999874,26.9512 L51.999874,22.4972142 C51.999874,20.7147008 50.5448029,19.2696882 48.7498818,19.2696882 L44.9148911,19.2696882 C45.2932635,18.2347045 45.4910999,17.1432109 45.4998897,16.0421622 C45.4998897,10.694622 41.1346766,6.35958422 35.7499133,6.35958422 C34.1963172,6.37843837 32.6697539,6.76574036 31.2974241,7.48921832 C28.7420573,2.00568718 22.6987058,-0.984204553 16.7518383,0.292925453 C10.8049708,1.57005546 6.5455647,6.77253403 6.49998424,12.8146362 C6.52375776,15.0879274 7.15158702,17.3146749 8.31997983,19.2696882 L3.24999212,19.2696882 C1.45507104,19.2696882 0,20.7147008 0,22.4972142 L0,54.772474 C0,56.5549874 1.45507104,58 3.24999212,58 L48.7498818,58 C50.5448029,58 51.999874,56.5549874 51.999874,54.772474 L51.999874,50.3184882 L60.2873539,54.4497214 C61.2984568,54.9557319 62.5018636,54.9026943 63.4638547,54.3097239 C64.4258458,53.7167535 65.0077497,52.6693274 64.999922,51.544948 L64.999922,25.7247401 C65.0020894,24.6096252 64.4245466,23.5723529 63.4723461,22.9813431 Z M35.7499133,12.8146362 C37.5448344,12.8146362 38.9999055,14.2596488 38.9999055,16.0421622 C38.9999055,17.8246756 37.5448344,19.2696882 35.7499133,19.2696882 C33.9549923,19.2696882 32.4999212,17.8246756 32.4999212,16.0421622 C32.4999212,14.2596488 33.9549923,12.8146362 35.7499133,12.8146362 Z M12.9999685,12.8146362 C12.9999685,9.24960943 15.9101106,6.35958422 19.4999527,6.35958422 C23.0897949,6.35958422 25.999937,9.24960943 25.999937,12.8146362 C25.999937,16.379663 23.0897949,19.2696882 19.4999527,19.2696882 C15.9101106,19.2696882 12.9999685,16.379663 12.9999685,12.8146362 Z M45.4998897,51.544948 L6.49998424,51.544948 L6.49998424,25.7247401 L45.4998897,25.7247401 L45.4998897,51.544948 Z M58.4998582,46.3163559 L51.999874,43.0888299 L51.999874,34.1808582 L58.4998582,30.9533322 L58.4998582,46.3163559 Z" id="Shape"></path>
                <rect id="Rectangle" x="9" y="43" width="13" height="6"></rect>
            </g>
        </g>
    </g>
</svg>